<mxfile host="www.draw.io" modified="2019-10-27T20:10:36.579Z" agent="Mozilla/5.0 (Windows NT 10.0; Win64; x64; rv:70.0) Gecko/20100101 Firefox/70.0" etag="vqZYoy05ZDY0j5qQB3i8" version="12.1.5" type="github" pages="1">
  <diagram id="f8FDwv2PGhkDMbGr4HIu" name="Page-1">
    <mxGraphModel dx="806" dy="515" grid="1" gridSize="10" guides="1" tooltips="1" connect="1" arrows="1" fold="1" page="1" pageScale="1" pageWidth="827" pageHeight="1169" math="0" shadow="0">
      <root>
        <mxCell id="0"/>
        <mxCell id="1" parent="0"/>
        <mxCell id="aZiavSXxZktiOjUCZPuj-4" value="Kategorie" style="rounded=0;whiteSpace=wrap;html=1;fontStyle=2" vertex="1" parent="1">
          <mxGeometry x="560" y="40" width="80" height="20" as="geometry"/>
        </mxCell>
        <mxCell id="aZiavSXxZktiOjUCZPuj-5" value="name" style="rounded=0;whiteSpace=wrap;html=1;fontSize=10;align=left;verticalAlign=top;" vertex="1" parent="1">
          <mxGeometry x="560" y="60" width="80" height="60" as="geometry"/>
        </mxCell>
        <mxCell id="aZiavSXxZktiOjUCZPuj-6" value="" style="rounded=0;whiteSpace=wrap;html=1;" vertex="1" parent="1">
          <mxGeometry x="560" y="120" width="80" height="70" as="geometry"/>
        </mxCell>
        <mxCell id="aZiavSXxZktiOjUCZPuj-9" value="EndKategorie" style="rounded=0;whiteSpace=wrap;html=1;fontStyle=0" vertex="1" parent="1">
          <mxGeometry x="460" y="240" width="80" height="20" as="geometry"/>
        </mxCell>
        <mxCell id="aZiavSXxZktiOjUCZPuj-10" value="" style="rounded=0;whiteSpace=wrap;html=1;fontSize=10;align=left;verticalAlign=top;" vertex="1" parent="1">
          <mxGeometry x="460" y="260" width="80" height="60" as="geometry"/>
        </mxCell>
        <mxCell id="aZiavSXxZktiOjUCZPuj-11" value="" style="rounded=0;whiteSpace=wrap;html=1;" vertex="1" parent="1">
          <mxGeometry x="460" y="320" width="80" height="70" as="geometry"/>
        </mxCell>
        <mxCell id="aZiavSXxZktiOjUCZPuj-12" value="ZwKategorie" style="rounded=0;whiteSpace=wrap;html=1;fontStyle=0" vertex="1" parent="1">
          <mxGeometry x="660" y="240" width="80" height="20" as="geometry"/>
        </mxCell>
        <mxCell id="aZiavSXxZktiOjUCZPuj-13" value="" style="rounded=0;whiteSpace=wrap;html=1;fontSize=10;align=left;verticalAlign=top;" vertex="1" parent="1">
          <mxGeometry x="660" y="260" width="80" height="60" as="geometry"/>
        </mxCell>
        <mxCell id="aZiavSXxZktiOjUCZPuj-14" value="" style="rounded=0;whiteSpace=wrap;html=1;" vertex="1" parent="1">
          <mxGeometry x="660" y="320" width="80" height="70" as="geometry"/>
        </mxCell>
        <mxCell id="aZiavSXxZktiOjUCZPuj-16" value="" style="endArrow=none;html=1;exitX=0.5;exitY=0;exitDx=0;exitDy=0;rounded=0;" edge="1" parent="1" source="aZiavSXxZktiOjUCZPuj-9">
          <mxGeometry width="50" height="50" relative="1" as="geometry">
            <mxPoint x="550" y="260" as="sourcePoint"/>
            <mxPoint x="600" y="200" as="targetPoint"/>
            <Array as="points">
              <mxPoint x="500" y="220"/>
              <mxPoint x="600" y="220"/>
            </Array>
          </mxGeometry>
        </mxCell>
        <mxCell id="aZiavSXxZktiOjUCZPuj-17" value="" style="endArrow=none;html=1;entryX=0.5;entryY=0;entryDx=0;entryDy=0;rounded=0;" edge="1" parent="1" target="aZiavSXxZktiOjUCZPuj-12">
          <mxGeometry width="50" height="50" relative="1" as="geometry">
            <mxPoint x="600" y="220" as="sourcePoint"/>
            <mxPoint x="650" y="170" as="targetPoint"/>
            <Array as="points">
              <mxPoint x="700" y="220"/>
            </Array>
          </mxGeometry>
        </mxCell>
        <mxCell id="aZiavSXxZktiOjUCZPuj-18" value="" style="triangle;whiteSpace=wrap;html=1;rotation=-90;" vertex="1" parent="1">
          <mxGeometry x="593" y="188" width="15" height="20" as="geometry"/>
        </mxCell>
        <mxCell id="aZiavSXxZktiOjUCZPuj-23" value="" style="endArrow=none;html=1;entryX=1;entryY=0.5;entryDx=0;entryDy=0;exitX=1;exitY=0.5;exitDx=0;exitDy=0;rounded=0;" edge="1" parent="1" source="aZiavSXxZktiOjUCZPuj-13" target="aZiavSXxZktiOjUCZPuj-5">
          <mxGeometry width="50" height="50" relative="1" as="geometry">
            <mxPoint x="460" y="460" as="sourcePoint"/>
            <mxPoint x="510" y="410" as="targetPoint"/>
            <Array as="points">
              <mxPoint x="780" y="290"/>
              <mxPoint x="780" y="90"/>
            </Array>
          </mxGeometry>
        </mxCell>
        <mxCell id="aZiavSXxZktiOjUCZPuj-24" value="Kunde" style="rounded=0;whiteSpace=wrap;html=1;fontStyle=0" vertex="1" parent="1">
          <mxGeometry x="40" y="240" width="80" height="20" as="geometry"/>
        </mxCell>
        <mxCell id="aZiavSXxZktiOjUCZPuj-25" value="&lt;div&gt;name&lt;/div&gt;&lt;div&gt;adresse&lt;/div&gt;&lt;div&gt;iban&lt;/div&gt;&lt;div&gt;email&lt;br&gt;&lt;/div&gt;" style="rounded=0;whiteSpace=wrap;html=1;fontSize=10;align=left;verticalAlign=top;" vertex="1" parent="1">
          <mxGeometry x="40" y="260" width="80" height="60" as="geometry"/>
        </mxCell>
        <mxCell id="aZiavSXxZktiOjUCZPuj-26" value="" style="rounded=0;whiteSpace=wrap;html=1;" vertex="1" parent="1">
          <mxGeometry x="40" y="320" width="80" height="70" as="geometry"/>
        </mxCell>
        <mxCell id="aZiavSXxZktiOjUCZPuj-27" value="Gebot" style="rounded=0;whiteSpace=wrap;html=1;fontStyle=0" vertex="1" parent="1">
          <mxGeometry x="180" y="240" width="80" height="20" as="geometry"/>
        </mxCell>
        <mxCell id="aZiavSXxZktiOjUCZPuj-28" value="preis" style="rounded=0;whiteSpace=wrap;html=1;fontSize=10;align=left;verticalAlign=top;" vertex="1" parent="1">
          <mxGeometry x="180" y="260" width="80" height="60" as="geometry"/>
        </mxCell>
        <mxCell id="aZiavSXxZktiOjUCZPuj-29" value="updateBid()" style="rounded=0;whiteSpace=wrap;html=1;align=left;verticalAlign=top;fontSize=10;" vertex="1" parent="1">
          <mxGeometry x="180" y="320" width="80" height="70" as="geometry"/>
        </mxCell>
        <mxCell id="aZiavSXxZktiOjUCZPuj-30" value="Gegenstand" style="rounded=0;whiteSpace=wrap;html=1;fontStyle=0" vertex="1" parent="1">
          <mxGeometry x="320" y="240" width="80" height="20" as="geometry"/>
        </mxCell>
        <mxCell id="aZiavSXxZktiOjUCZPuj-31" value="&lt;div&gt;bezeichnung&lt;/div&gt;&lt;div&gt;mindestpreis&lt;/div&gt;&lt;div&gt;zustand&lt;/div&gt;&lt;div&gt;auktionsende&lt;br&gt;&lt;/div&gt;" style="rounded=0;whiteSpace=wrap;html=1;fontSize=10;align=left;verticalAlign=top;" vertex="1" parent="1">
          <mxGeometry x="320" y="260" width="80" height="60" as="geometry"/>
        </mxCell>
        <mxCell id="aZiavSXxZktiOjUCZPuj-32" value="&lt;div&gt;getCategory()&lt;/div&gt;&lt;div&gt;updtHighestBid()&lt;br&gt;&lt;/div&gt;" style="rounded=0;whiteSpace=wrap;html=1;fontSize=10;verticalAlign=top;align=left;" vertex="1" parent="1">
          <mxGeometry x="320" y="320" width="80" height="70" as="geometry"/>
        </mxCell>
        <mxCell id="aZiavSXxZktiOjUCZPuj-33" value="" style="endArrow=none;html=1;exitX=0;exitY=0.5;exitDx=0;exitDy=0;startArrow=diamond;startFill=0;entryX=1;entryY=0.5;entryDx=0;entryDy=0;" edge="1" parent="1" source="aZiavSXxZktiOjUCZPuj-10" target="aZiavSXxZktiOjUCZPuj-31">
          <mxGeometry width="50" height="50" relative="1" as="geometry">
            <mxPoint x="410" y="340" as="sourcePoint"/>
            <mxPoint x="440" y="330" as="targetPoint"/>
          </mxGeometry>
        </mxCell>
        <mxCell id="aZiavSXxZktiOjUCZPuj-34" value="" style="endArrow=none;html=1;entryX=0;entryY=0.5;entryDx=0;entryDy=0;exitX=1;exitY=0.5;exitDx=0;exitDy=0;" edge="1" parent="1" source="aZiavSXxZktiOjUCZPuj-25" target="aZiavSXxZktiOjUCZPuj-28">
          <mxGeometry width="50" height="50" relative="1" as="geometry">
            <mxPoint x="40" y="460" as="sourcePoint"/>
            <mxPoint x="90" y="410" as="targetPoint"/>
          </mxGeometry>
        </mxCell>
        <mxCell id="aZiavSXxZktiOjUCZPuj-35" value="" style="endArrow=none;html=1;entryX=0;entryY=0.5;entryDx=0;entryDy=0;exitX=1;exitY=0.5;exitDx=0;exitDy=0;" edge="1" parent="1">
          <mxGeometry width="50" height="50" relative="1" as="geometry">
            <mxPoint x="260" y="289.5" as="sourcePoint"/>
            <mxPoint x="320" y="289.5" as="targetPoint"/>
          </mxGeometry>
        </mxCell>
        <mxCell id="aZiavSXxZktiOjUCZPuj-36" value="*" style="text;html=1;strokeColor=none;fillColor=none;align=center;verticalAlign=middle;whiteSpace=wrap;rounded=0;" vertex="1" parent="1">
          <mxGeometry x="624" y="70" width="40" height="20" as="geometry"/>
        </mxCell>
        <mxCell id="aZiavSXxZktiOjUCZPuj-37" value="1" style="text;html=1;strokeColor=none;fillColor=none;align=center;verticalAlign=middle;whiteSpace=wrap;rounded=0;" vertex="1" parent="1">
          <mxGeometry x="724" y="270" width="40" height="20" as="geometry"/>
        </mxCell>
        <mxCell id="aZiavSXxZktiOjUCZPuj-41" value="1" style="text;html=1;strokeColor=none;fillColor=none;align=center;verticalAlign=middle;whiteSpace=wrap;rounded=0;" vertex="1" parent="1">
          <mxGeometry x="435" y="270" width="40" height="20" as="geometry"/>
        </mxCell>
        <mxCell id="aZiavSXxZktiOjUCZPuj-42" value="1..*" style="text;html=1;strokeColor=none;fillColor=none;align=center;verticalAlign=middle;whiteSpace=wrap;rounded=0;" vertex="1" parent="1">
          <mxGeometry x="390" y="270" width="40" height="20" as="geometry"/>
        </mxCell>
        <mxCell id="aZiavSXxZktiOjUCZPuj-43" value="1" style="text;html=1;strokeColor=none;fillColor=none;align=center;verticalAlign=middle;whiteSpace=wrap;rounded=0;" vertex="1" parent="1">
          <mxGeometry x="295" y="270" width="40" height="20" as="geometry"/>
        </mxCell>
        <mxCell id="aZiavSXxZktiOjUCZPuj-44" value="*" style="text;html=1;strokeColor=none;fillColor=none;align=center;verticalAlign=middle;whiteSpace=wrap;rounded=0;" vertex="1" parent="1">
          <mxGeometry x="244" y="270" width="40" height="20" as="geometry"/>
        </mxCell>
        <mxCell id="aZiavSXxZktiOjUCZPuj-46" value="1" style="text;html=1;strokeColor=none;fillColor=none;align=center;verticalAlign=middle;whiteSpace=wrap;rounded=0;" vertex="1" parent="1">
          <mxGeometry x="154" y="270" width="40" height="20" as="geometry"/>
        </mxCell>
        <mxCell id="aZiavSXxZktiOjUCZPuj-47" value="1" style="text;html=1;strokeColor=none;fillColor=none;align=center;verticalAlign=middle;whiteSpace=wrap;rounded=0;" vertex="1" parent="1">
          <mxGeometry x="104" y="270" width="40" height="20" as="geometry"/>
        </mxCell>
        <mxCell id="aZiavSXxZktiOjUCZPuj-48" value="" style="triangle;whiteSpace=wrap;html=1;fontSize=10;align=left;fillColor=#000000;" vertex="1" parent="1">
          <mxGeometry x="165" y="245" width="10" height="10" as="geometry"/>
        </mxCell>
        <mxCell id="aZiavSXxZktiOjUCZPuj-49" value="bietet" style="text;html=1;strokeColor=none;fillColor=none;align=center;verticalAlign=middle;whiteSpace=wrap;rounded=0;fontSize=10;" vertex="1" parent="1">
          <mxGeometry x="125" y="240" width="40" height="20" as="geometry"/>
        </mxCell>
        <mxCell id="aZiavSXxZktiOjUCZPuj-50" value="" style="triangle;whiteSpace=wrap;html=1;fontSize=10;align=left;fillColor=#000000;rotation=-180;" vertex="1" parent="1">
          <mxGeometry x="720" y="60" width="10" height="10" as="geometry"/>
        </mxCell>
        <mxCell id="aZiavSXxZktiOjUCZPuj-51" value="enthält" style="text;html=1;strokeColor=none;fillColor=none;align=center;verticalAlign=middle;whiteSpace=wrap;rounded=0;fontSize=10;" vertex="1" parent="1">
          <mxGeometry x="730" y="55" width="40" height="20" as="geometry"/>
        </mxCell>
        <mxCell id="aZiavSXxZktiOjUCZPuj-52" value="" style="triangle;whiteSpace=wrap;html=1;fontSize=10;align=left;fillColor=#000000;rotation=-180;" vertex="1" parent="1">
          <mxGeometry x="405" y="250" width="10" height="10" as="geometry"/>
        </mxCell>
        <mxCell id="aZiavSXxZktiOjUCZPuj-53" value="enthält" style="text;html=1;strokeColor=none;fillColor=none;align=center;verticalAlign=middle;whiteSpace=wrap;rounded=0;fontSize=10;" vertex="1" parent="1">
          <mxGeometry x="415" y="245" width="40" height="20" as="geometry"/>
        </mxCell>
        <mxCell id="aZiavSXxZktiOjUCZPuj-54" value="" style="triangle;whiteSpace=wrap;html=1;fontSize=10;align=left;fillColor=#000000;rotation=-180;" vertex="1" parent="1">
          <mxGeometry x="261" y="245" width="10" height="10" as="geometry"/>
        </mxCell>
        <mxCell id="aZiavSXxZktiOjUCZPuj-55" value="nimmt entgegen" style="text;html=1;strokeColor=none;fillColor=none;align=center;verticalAlign=middle;whiteSpace=wrap;rounded=0;fontSize=10;" vertex="1" parent="1">
          <mxGeometry x="275" y="240" width="40" height="20" as="geometry"/>
        </mxCell>
      </root>
    </mxGraphModel>
  </diagram>
</mxfile>
